SIPNOSIS

Inspirada en hechos reales. Una compañía de soldados americanos se pierde detrás de las líneas enemigas durante la Batalla y hace un descubrimiento terrible, una super bomba en desarrollo. Los soldados pronto aprenderán acerca de una misión secreta para recuperar un aliado científico desertor alemán a cargo de un programa de armas secretas. Frente a situaciones imposibles, la compañía y un escape de prisioneros de guerra iran en una audaz incursión en el corazón de la Alemania nazi en la búsqueda del científico.


DATOS TECNICOS

Format                                   : Matroska
Format version                           : Version 2
File size                                : 3.88 GiB
Duration                                 : 1h 40mn
Overall bit rate                         : 5 532 Kbps
Encoded date                             : UTC 2013-02-23 15:44:12
Writing application                      : mkvmerge v5.8.0 ('No Sleep / Pillow') built on Sep  2 2012 15:37:04
Writing library                          : libebml v1.2.3 + libmatroska v1.3.0
Attachment                               : Yes

Video
ID                                       : 1
Format                                   : AVC
Format/Info                              : Advanced Video Codec
Format profile                           : High@L3.1
Format settings, CABAC                   : Yes
Format settings, ReFrames                : 2 frames
Muxing mode                              : Header stripping
Codec ID                                 : V_MPEG4/ISO/AVC
Duration                                 : 1h 40mn
Bit rate                                 : 5 000 Kbps
Width                                    : 1 280 pixels
Height                                   : 720 pixels
Display aspect ratio                     : 16:9
Frame rate mode                          : Constant
Frame rate                               : 23.976 fps
Color space                              : YUV
Chroma subsampling                       : 4:2:0
Bit depth                                : 8 bits
Scan type                                : Progressive
Bits/(Pixel*Frame)                       : 0.226
Stream size                              : 3.36 GiB (86%)
Writing library                          : x264 core 129 r2230 1cffe9f
Encoding settings                        : cabac=1 / ref=2 / deblock=1:0:0 / analyse=0x3:0x113 / me=hex / subme=6 / psy=1 / psy_rd=1.00:0.00 / mixed_ref=1 / me_range=16 / chroma_me=1 / trellis=1 / 8x8dct=1 / cqm=0 / deadzone=21,11 / fast_pskip=1 / chroma_qp_offset=-2 / threads=6 / lookahead_threads=1 / sliced_threads=0 / nr=0 / decimate=1 / interlaced=0 / bluray_compat=0 / constrained_intra=0 / bframes=1 / b_pyramid=0 / b_adapt=1 / b_bias=0 / direct=1 / weightb=1 / open_gop=0 / weightp=2 / keyint=250 / keyint_min=25 / scenecut=40 / intra_refresh=0 / rc_lookahead=30 / rc=cbr / mbtree=1 / bitrate=5000 / ratetol=1.0 / qcomp=0.60 / qpmin=0 / qpmax=69 / qpstep=4 / vbv_maxrate=5000 / vbv_bufsize=5000 / nal_hrd=none / ip_ratio=1.40 / aq=1:1.00
Default                                  : Yes
Forced                                   : No

Audio
ID                                       : 2
Format                                   : AC-3
Format/Info                              : Audio Coding 3
Mode extension                           : CM (complete main)
Format settings, Endianness              : Big
Muxing mode                              : Header stripping
Codec ID                                 : A_AC3
Duration                                 : 1h 40mn
Bit rate mode                            : Constant
Bit rate                                 : 640 Kbps
Channel(s)                               : 6 channels
Channel positions                        : Front: L C R, Side: L R, LFE
Sampling rate                            : 48.0 KHz
Bit depth                                : 16 bits
Compression mode                         : Lossy
Stream size                              : 460 MiB (12%)
Title                                    : Español Latino
Language                                 : Spanish
Default                                  : Yes
Forced                                   : No

Menu
00:00:00.000                             : en:00:00:00.000
00:05:59.401                             : en:00:05:59.401
00:11:24.809                             : en:00:11:24.809
00:15:57.290                             : en:00:15:57.290
00:22:15.876                             : en:00:22:15.876
00:28:56.860                             : en:00:28:56.860
00:34:36.533                             : en:00:34:36.533
00:42:13.740                             : en:00:42:13.740
00:46:32.790                             : en:00:46:32.790
00:53:27.371                             : en:00:53:27.371
00:59:41.620                             : en:00:59:41.620
01:05:14.911                             : en:01:05:14.911
01:11:46.385                             : en:01:11:46.385
01:19:12.748                             : en:01:19:12.748
01:23:54.780                             : en:01:23:54.780
01:28:59.125                             : en:01:28:59.125